<mxfile host="app.diagrams.net" modified="2024-01-23T23:28:01.100Z" agent="Mozilla/5.0 (Windows NT 10.0; Win64; x64) AppleWebKit/537.36 (KHTML, like Gecko) Chrome/120.0.0.0 Safari/537.36" etag="WYLB51eOd3FsO9WEZTqn" version="23.0.0" type="device">
  <diagram name="Page-1" id="0cxLK6B1qZ-80W-4j8hx">
    <mxGraphModel dx="1221" dy="630" grid="0" gridSize="10" guides="1" tooltips="1" connect="1" arrows="1" fold="1" page="0" pageScale="1" pageWidth="850" pageHeight="1100" math="0" shadow="0">
      <root>
        <mxCell id="0" />
        <mxCell id="1" parent="0" />
        <mxCell id="Iu25lgEWChFgaFbriD92-103" value="&lt;font style=&quot;font-size: 18px;&quot;&gt;Output&lt;/font&gt;" style="rounded=1;whiteSpace=wrap;html=1;fillColor=#f5f5f5;gradientColor=#b3b3b3;strokeColor=#666666;fontSize=14;fontStyle=1;rotation=-90;" parent="1" vertex="1">
          <mxGeometry x="1451" y="277.48" width="90" height="35" as="geometry" />
        </mxCell>
        <mxCell id="Iu25lgEWChFgaFbriD92-123" value="&lt;font style=&quot;font-size: 18px;&quot;&gt;1st half Partitioned Model&lt;/font&gt;" style="text;html=1;align=center;verticalAlign=middle;resizable=0;points=[];autosize=1;strokeColor=none;fillColor=none;fontSize=14;fontStyle=1" parent="1" vertex="1">
          <mxGeometry x="543.63" y="52" width="237" height="34" as="geometry" />
        </mxCell>
        <mxCell id="WK32DhDvXuLAIViGbRyr-101" value="" style="curved=1;endArrow=classic;html=1;rounded=0;fontSize=14;fontStyle=1;exitX=1;exitY=0.5;exitDx=0;exitDy=0;entryX=0.5;entryY=0;entryDx=0;entryDy=0;" parent="1" source="WK32DhDvXuLAIViGbRyr-117" target="WK32DhDvXuLAIViGbRyr-103" edge="1">
          <mxGeometry width="50" height="50" relative="1" as="geometry">
            <mxPoint x="1044" y="225" as="sourcePoint" />
            <mxPoint x="1079" y="185" as="targetPoint" />
            <Array as="points">
              <mxPoint x="1049" y="205" />
              <mxPoint x="1059" y="185" />
            </Array>
          </mxGeometry>
        </mxCell>
        <mxCell id="WK32DhDvXuLAIViGbRyr-102" style="edgeStyle=orthogonalEdgeStyle;rounded=0;orthogonalLoop=1;jettySize=auto;html=1;exitX=0.5;exitY=1;exitDx=0;exitDy=0;entryX=0.5;entryY=0;entryDx=0;entryDy=0;" parent="1" source="WK32DhDvXuLAIViGbRyr-103" target="WK32DhDvXuLAIViGbRyr-105" edge="1">
          <mxGeometry relative="1" as="geometry" />
        </mxCell>
        <mxCell id="WK32DhDvXuLAIViGbRyr-103" value="&lt;b&gt;&lt;font style=&quot;font-size: 18px;&quot;&gt;QuantizeLinear&lt;/font&gt;&lt;/b&gt;" style="rounded=1;whiteSpace=wrap;html=1;fillColor=#647687;fontColor=#ffffff;strokeColor=#314354;rotation=-90;" parent="1" vertex="1">
          <mxGeometry x="1016" y="165.26" width="159" height="33.74" as="geometry" />
        </mxCell>
        <mxCell id="vSDdu6eOxFjw2Nqs_4SC-7" style="edgeStyle=orthogonalEdgeStyle;rounded=0;orthogonalLoop=1;jettySize=auto;html=1;exitX=0.5;exitY=1;exitDx=0;exitDy=0;entryX=0.5;entryY=0;entryDx=0;entryDy=0;" parent="1" source="WK32DhDvXuLAIViGbRyr-105" target="WK32DhDvXuLAIViGbRyr-110" edge="1">
          <mxGeometry relative="1" as="geometry" />
        </mxCell>
        <mxCell id="WK32DhDvXuLAIViGbRyr-105" value="&lt;b&gt;&lt;font style=&quot;font-size: 18px;&quot;&gt;QLinearConv&lt;/font&gt;&lt;/b&gt;" style="rounded=1;whiteSpace=wrap;html=1;fillColor=#6d8764;fontColor=#ffffff;strokeColor=#3A5431;rotation=-90;" parent="1" vertex="1">
          <mxGeometry x="1087" y="162.51" width="143.5" height="37.5" as="geometry" />
        </mxCell>
        <mxCell id="WK32DhDvXuLAIViGbRyr-109" style="edgeStyle=orthogonalEdgeStyle;rounded=0;orthogonalLoop=1;jettySize=auto;html=1;exitX=0.5;exitY=1;exitDx=0;exitDy=0;entryX=0.5;entryY=0;entryDx=0;entryDy=0;" parent="1" source="WK32DhDvXuLAIViGbRyr-110" target="vSDdu6eOxFjw2Nqs_4SC-8" edge="1">
          <mxGeometry relative="1" as="geometry">
            <mxPoint x="1354.63" y="181.87999999999988" as="targetPoint" />
          </mxGeometry>
        </mxCell>
        <mxCell id="WK32DhDvXuLAIViGbRyr-110" value="&lt;b style=&quot;border-color: var(--border-color);&quot;&gt;&lt;font style=&quot;border-color: var(--border-color); font-size: 18px;&quot;&gt;QLinearConv&lt;/font&gt;&lt;/b&gt;" style="rounded=1;whiteSpace=wrap;html=1;fillColor=#6d8764;fontColor=#ffffff;strokeColor=#3A5431;rotation=-90;" parent="1" vertex="1">
          <mxGeometry x="1150" y="163.38" width="148" height="37.5" as="geometry" />
        </mxCell>
        <mxCell id="WK32DhDvXuLAIViGbRyr-115" value="" style="curved=1;endArrow=classic;html=1;rounded=0;exitX=0.5;exitY=1;exitDx=0;exitDy=0;fontSize=14;fontStyle=1;entryX=1;entryY=0.5;entryDx=0;entryDy=0;" parent="1" source="vSDdu6eOxFjw2Nqs_4SC-9" target="WK32DhDvXuLAIViGbRyr-116" edge="1">
          <mxGeometry width="50" height="50" relative="1" as="geometry">
            <mxPoint x="1514" y="181.25" as="sourcePoint" />
            <mxPoint x="1589" y="315" as="targetPoint" />
            <Array as="points">
              <mxPoint x="1416" y="193" />
            </Array>
          </mxGeometry>
        </mxCell>
        <mxCell id="WK32DhDvXuLAIViGbRyr-116" value="&lt;b&gt;&lt;font style=&quot;font-size: 18px;&quot;&gt;Sum&lt;/font&gt;&lt;/b&gt;" style="rounded=1;whiteSpace=wrap;html=1;fillColor=#76608a;fontColor=#ffffff;strokeColor=#432D57;rotation=-90;" parent="1" vertex="1">
          <mxGeometry x="1379.25" y="280" width="65" height="33.74" as="geometry" />
        </mxCell>
        <mxCell id="WK32DhDvXuLAIViGbRyr-117" value="&lt;b&gt;&lt;font style=&quot;font-size: 18px;&quot;&gt;Relu&lt;/font&gt;&lt;/b&gt;" style="rounded=1;whiteSpace=wrap;html=1;fillColor=#a20025;fontColor=#ffffff;strokeColor=#6F0000;rotation=-90;" parent="1" vertex="1">
          <mxGeometry x="1009" y="278.74" width="65" height="33.74" as="geometry" />
        </mxCell>
        <mxCell id="WK32DhDvXuLAIViGbRyr-120" value="" style="curved=1;endArrow=classic;html=1;rounded=0;exitX=0;exitY=0.5;exitDx=0;exitDy=0;entryX=0;entryY=0.5;entryDx=0;entryDy=0;" parent="1" source="WK32DhDvXuLAIViGbRyr-117" target="WK32DhDvXuLAIViGbRyr-116" edge="1">
          <mxGeometry width="50" height="50" relative="1" as="geometry">
            <mxPoint x="1079" y="295" as="sourcePoint" />
            <mxPoint x="1129" y="245" as="targetPoint" />
            <Array as="points">
              <mxPoint x="1059" y="405" />
              <mxPoint x="1201" y="412" />
              <mxPoint x="1412" y="410" />
            </Array>
          </mxGeometry>
        </mxCell>
        <mxCell id="WK32DhDvXuLAIViGbRyr-145" value="" style="strokeWidth=2;html=1;shape=mxgraph.flowchart.annotation_1;align=left;pointerEvents=1;direction=south;fontSize=14;fontStyle=1" parent="1" vertex="1">
          <mxGeometry x="356" y="83" width="565" height="50" as="geometry" />
        </mxCell>
        <mxCell id="WK32DhDvXuLAIViGbRyr-146" value="&lt;font style=&quot;font-size: 18px;&quot;&gt;2nd half Partioned Model&lt;/font&gt;" style="text;html=1;align=center;verticalAlign=middle;resizable=0;points=[];autosize=1;strokeColor=none;fillColor=none;fontSize=14;fontStyle=1" parent="1" vertex="1">
          <mxGeometry x="1121.5" y="52" width="232" height="34" as="geometry" />
        </mxCell>
        <mxCell id="WK32DhDvXuLAIViGbRyr-147" value="" style="strokeWidth=2;html=1;shape=mxgraph.flowchart.annotation_1;align=left;pointerEvents=1;direction=south;fontSize=14;fontStyle=1" parent="1" vertex="1">
          <mxGeometry x="954" y="83" width="567" height="50" as="geometry" />
        </mxCell>
        <mxCell id="vSDdu6eOxFjw2Nqs_4SC-10" style="edgeStyle=orthogonalEdgeStyle;rounded=0;orthogonalLoop=1;jettySize=auto;html=1;exitX=0.5;exitY=1;exitDx=0;exitDy=0;" parent="1" source="vSDdu6eOxFjw2Nqs_4SC-8" target="vSDdu6eOxFjw2Nqs_4SC-9" edge="1">
          <mxGeometry relative="1" as="geometry" />
        </mxCell>
        <mxCell id="vSDdu6eOxFjw2Nqs_4SC-8" value="&lt;b style=&quot;border-color: var(--border-color);&quot;&gt;&lt;font style=&quot;border-color: var(--border-color); font-size: 18px;&quot;&gt;QLinearConv&lt;/font&gt;&lt;/b&gt;" style="rounded=1;whiteSpace=wrap;html=1;fillColor=#6d8764;fontColor=#ffffff;strokeColor=#3A5431;rotation=-90;" parent="1" vertex="1">
          <mxGeometry x="1218" y="162.51" width="148" height="37.5" as="geometry" />
        </mxCell>
        <mxCell id="vSDdu6eOxFjw2Nqs_4SC-9" value="&lt;b&gt;&lt;font style=&quot;font-size: 18px;&quot;&gt;DequantizeLinear&lt;/font&gt;&lt;/b&gt;" style="rounded=1;whiteSpace=wrap;html=1;fillColor=#d80073;fontColor=#ffffff;strokeColor=#A50040;rotation=-90;" parent="1" vertex="1">
          <mxGeometry x="1268" y="163.76000000000002" width="176.25" height="33.74" as="geometry" />
        </mxCell>
        <mxCell id="vSDdu6eOxFjw2Nqs_4SC-22" value="" style="curved=1;endArrow=classic;html=1;rounded=0;fontSize=14;fontStyle=1;exitX=1;exitY=0.5;exitDx=0;exitDy=0;entryX=0.5;entryY=0;entryDx=0;entryDy=0;" parent="1" source="vSDdu6eOxFjw2Nqs_4SC-31" target="vSDdu6eOxFjw2Nqs_4SC-24" edge="1">
          <mxGeometry width="50" height="50" relative="1" as="geometry">
            <mxPoint x="458.63" y="223.49" as="sourcePoint" />
            <mxPoint x="493.63" y="183.49" as="targetPoint" />
            <Array as="points">
              <mxPoint x="463.63" y="203.49" />
              <mxPoint x="473.63" y="183.49" />
            </Array>
          </mxGeometry>
        </mxCell>
        <mxCell id="vSDdu6eOxFjw2Nqs_4SC-23" style="edgeStyle=orthogonalEdgeStyle;rounded=0;orthogonalLoop=1;jettySize=auto;html=1;exitX=0.5;exitY=1;exitDx=0;exitDy=0;entryX=0.5;entryY=0;entryDx=0;entryDy=0;" parent="1" source="vSDdu6eOxFjw2Nqs_4SC-24" target="vSDdu6eOxFjw2Nqs_4SC-26" edge="1">
          <mxGeometry relative="1" as="geometry" />
        </mxCell>
        <mxCell id="vSDdu6eOxFjw2Nqs_4SC-24" value="&lt;b&gt;&lt;font style=&quot;font-size: 18px;&quot;&gt;QuantizeLinear&lt;/font&gt;&lt;/b&gt;" style="rounded=1;whiteSpace=wrap;html=1;fillColor=#647687;fontColor=#ffffff;strokeColor=#314354;rotation=-90;" parent="1" vertex="1">
          <mxGeometry x="430.63" y="163.75" width="159" height="33.74" as="geometry" />
        </mxCell>
        <mxCell id="vSDdu6eOxFjw2Nqs_4SC-25" style="edgeStyle=orthogonalEdgeStyle;rounded=0;orthogonalLoop=1;jettySize=auto;html=1;exitX=0.5;exitY=1;exitDx=0;exitDy=0;entryX=0.5;entryY=0;entryDx=0;entryDy=0;" parent="1" source="vSDdu6eOxFjw2Nqs_4SC-26" target="vSDdu6eOxFjw2Nqs_4SC-28" edge="1">
          <mxGeometry relative="1" as="geometry" />
        </mxCell>
        <mxCell id="vSDdu6eOxFjw2Nqs_4SC-26" value="&lt;b&gt;&lt;font style=&quot;font-size: 18px;&quot;&gt;QLinearConv&lt;/font&gt;&lt;/b&gt;" style="rounded=1;whiteSpace=wrap;html=1;fillColor=#6d8764;fontColor=#ffffff;strokeColor=#3A5431;rotation=-90;" parent="1" vertex="1">
          <mxGeometry x="501.63" y="161" width="143.5" height="37.5" as="geometry" />
        </mxCell>
        <mxCell id="vSDdu6eOxFjw2Nqs_4SC-27" style="edgeStyle=orthogonalEdgeStyle;rounded=0;orthogonalLoop=1;jettySize=auto;html=1;exitX=0.5;exitY=1;exitDx=0;exitDy=0;entryX=0.5;entryY=0;entryDx=0;entryDy=0;" parent="1" source="vSDdu6eOxFjw2Nqs_4SC-28" target="vSDdu6eOxFjw2Nqs_4SC-34" edge="1">
          <mxGeometry relative="1" as="geometry">
            <mxPoint x="769.2600000000001" y="180.3699999999999" as="targetPoint" />
          </mxGeometry>
        </mxCell>
        <mxCell id="vSDdu6eOxFjw2Nqs_4SC-28" value="&lt;b style=&quot;border-color: var(--border-color);&quot;&gt;&lt;font style=&quot;border-color: var(--border-color); font-size: 18px;&quot;&gt;QLinearConv&lt;/font&gt;&lt;/b&gt;" style="rounded=1;whiteSpace=wrap;html=1;fillColor=#6d8764;fontColor=#ffffff;strokeColor=#3A5431;rotation=-90;" parent="1" vertex="1">
          <mxGeometry x="564.63" y="161.87" width="148" height="37.5" as="geometry" />
        </mxCell>
        <mxCell id="vSDdu6eOxFjw2Nqs_4SC-29" value="" style="curved=1;endArrow=classic;html=1;rounded=0;exitX=0.5;exitY=1;exitDx=0;exitDy=0;fontSize=14;fontStyle=1;entryX=1;entryY=0.5;entryDx=0;entryDy=0;" parent="1" source="vSDdu6eOxFjw2Nqs_4SC-35" target="vSDdu6eOxFjw2Nqs_4SC-30" edge="1">
          <mxGeometry width="50" height="50" relative="1" as="geometry">
            <mxPoint x="928.63" y="179.74" as="sourcePoint" />
            <mxPoint x="1003.63" y="313.49" as="targetPoint" />
            <Array as="points">
              <mxPoint x="830.63" y="191.49" />
            </Array>
          </mxGeometry>
        </mxCell>
        <mxCell id="HVfy88yMo6TymLhJbl7A-13" style="edgeStyle=orthogonalEdgeStyle;rounded=0;orthogonalLoop=1;jettySize=auto;html=1;exitX=0.5;exitY=1;exitDx=0;exitDy=0;entryX=0.096;entryY=0.515;entryDx=0;entryDy=0;entryPerimeter=0;" parent="1" source="vSDdu6eOxFjw2Nqs_4SC-30" target="HVfy88yMo6TymLhJbl7A-5" edge="1">
          <mxGeometry relative="1" as="geometry" />
        </mxCell>
        <mxCell id="vSDdu6eOxFjw2Nqs_4SC-30" value="&lt;b&gt;&lt;font style=&quot;font-size: 18px;&quot;&gt;Sum&lt;/font&gt;&lt;/b&gt;" style="rounded=1;whiteSpace=wrap;html=1;fillColor=#76608a;fontColor=#ffffff;strokeColor=#432D57;rotation=-90;" parent="1" vertex="1">
          <mxGeometry x="793.88" y="278.49" width="65" height="33.74" as="geometry" />
        </mxCell>
        <mxCell id="vSDdu6eOxFjw2Nqs_4SC-31" value="&lt;b&gt;&lt;font style=&quot;font-size: 18px;&quot;&gt;Relu&lt;/font&gt;&lt;/b&gt;" style="rounded=1;whiteSpace=wrap;html=1;fillColor=#a20025;fontColor=#ffffff;strokeColor=#6F0000;rotation=-90;" parent="1" vertex="1">
          <mxGeometry x="423.63" y="277.23" width="65" height="33.74" as="geometry" />
        </mxCell>
        <mxCell id="vSDdu6eOxFjw2Nqs_4SC-32" value="" style="curved=1;endArrow=classic;html=1;rounded=0;exitX=0;exitY=0.5;exitDx=0;exitDy=0;entryX=0;entryY=0.5;entryDx=0;entryDy=0;" parent="1" source="vSDdu6eOxFjw2Nqs_4SC-31" target="vSDdu6eOxFjw2Nqs_4SC-30" edge="1">
          <mxGeometry width="50" height="50" relative="1" as="geometry">
            <mxPoint x="489.26" y="286.49" as="sourcePoint" />
            <mxPoint x="539.26" y="236.49" as="targetPoint" />
            <Array as="points">
              <mxPoint x="469.26" y="396.49" />
              <mxPoint x="609.26" y="416.49" />
              <mxPoint x="817.26" y="403.49" />
            </Array>
          </mxGeometry>
        </mxCell>
        <mxCell id="vSDdu6eOxFjw2Nqs_4SC-33" style="edgeStyle=orthogonalEdgeStyle;rounded=0;orthogonalLoop=1;jettySize=auto;html=1;exitX=0.5;exitY=1;exitDx=0;exitDy=0;" parent="1" source="vSDdu6eOxFjw2Nqs_4SC-34" target="vSDdu6eOxFjw2Nqs_4SC-35" edge="1">
          <mxGeometry relative="1" as="geometry" />
        </mxCell>
        <mxCell id="vSDdu6eOxFjw2Nqs_4SC-34" value="&lt;b style=&quot;border-color: var(--border-color);&quot;&gt;&lt;font style=&quot;border-color: var(--border-color); font-size: 18px;&quot;&gt;QLinearConv&lt;/font&gt;&lt;/b&gt;" style="rounded=1;whiteSpace=wrap;html=1;fillColor=#6d8764;fontColor=#ffffff;strokeColor=#3A5431;rotation=-90;" parent="1" vertex="1">
          <mxGeometry x="632.63" y="161" width="148" height="37.5" as="geometry" />
        </mxCell>
        <mxCell id="vSDdu6eOxFjw2Nqs_4SC-35" value="&lt;b&gt;&lt;font style=&quot;font-size: 18px;&quot;&gt;DequantizeLinear&lt;/font&gt;&lt;/b&gt;" style="rounded=1;whiteSpace=wrap;html=1;fillColor=#d80073;fontColor=#ffffff;strokeColor=#A50040;rotation=-90;" parent="1" vertex="1">
          <mxGeometry x="682.63" y="163.38000000000002" width="176.25" height="33.74" as="geometry" />
        </mxCell>
        <mxCell id="HVfy88yMo6TymLhJbl7A-15" style="edgeStyle=orthogonalEdgeStyle;rounded=0;orthogonalLoop=1;jettySize=auto;html=1;entryX=0.475;entryY=1.073;entryDx=0;entryDy=0;entryPerimeter=0;" parent="1" source="HVfy88yMo6TymLhJbl7A-1" target="HVfy88yMo6TymLhJbl7A-3" edge="1">
          <mxGeometry relative="1" as="geometry">
            <Array as="points">
              <mxPoint x="938" y="337" />
              <mxPoint x="972" y="337" />
            </Array>
          </mxGeometry>
        </mxCell>
        <mxCell id="HVfy88yMo6TymLhJbl7A-16" style="edgeStyle=orthogonalEdgeStyle;rounded=0;orthogonalLoop=1;jettySize=auto;html=1;entryX=0.538;entryY=1.03;entryDx=0;entryDy=0;entryPerimeter=0;" parent="1" source="HVfy88yMo6TymLhJbl7A-1" target="HVfy88yMo6TymLhJbl7A-5" edge="1">
          <mxGeometry relative="1" as="geometry">
            <Array as="points">
              <mxPoint x="938" y="337" />
              <mxPoint x="900" y="337" />
            </Array>
          </mxGeometry>
        </mxCell>
        <mxCell id="HVfy88yMo6TymLhJbl7A-1" value="&lt;font style=&quot;font-size: 18px;&quot;&gt;conv4_23&amp;nbsp;&lt;/font&gt;" style="text;html=1;align=center;verticalAlign=middle;resizable=0;points=[];autosize=1;strokeColor=none;fillColor=none;fontSize=14;fontStyle=1" parent="1" vertex="1">
          <mxGeometry x="890" y="351" width="105" height="34" as="geometry" />
        </mxCell>
        <mxCell id="HVfy88yMo6TymLhJbl7A-4" style="edgeStyle=orthogonalEdgeStyle;rounded=0;orthogonalLoop=1;jettySize=auto;html=1;entryX=0.5;entryY=0;entryDx=0;entryDy=0;" parent="1" source="HVfy88yMo6TymLhJbl7A-3" target="WK32DhDvXuLAIViGbRyr-117" edge="1">
          <mxGeometry relative="1" as="geometry" />
        </mxCell>
        <mxCell id="HVfy88yMo6TymLhJbl7A-3" value="&lt;font style=&quot;font-size: 18px;&quot;&gt;Input&lt;/font&gt;" style="text;html=1;align=center;verticalAlign=middle;resizable=0;points=[];autosize=1;strokeColor=none;fillColor=none;fontSize=14;fontStyle=1" parent="1" vertex="1">
          <mxGeometry x="942" y="278.49" width="62" height="34" as="geometry" />
        </mxCell>
        <mxCell id="HVfy88yMo6TymLhJbl7A-5" value="&lt;font style=&quot;font-size: 18px;&quot;&gt;Output&lt;/font&gt;" style="text;html=1;align=center;verticalAlign=middle;resizable=0;points=[];autosize=1;strokeColor=none;fillColor=none;fontSize=14;fontStyle=1" parent="1" vertex="1">
          <mxGeometry x="858.88" y="278.48" width="77" height="34" as="geometry" />
        </mxCell>
        <mxCell id="HVfy88yMo6TymLhJbl7A-17" value="&lt;font style=&quot;font-size: 48px;&quot;&gt;...&lt;/font&gt;" style="text;html=1;align=center;verticalAlign=middle;resizable=0;points=[];autosize=1;strokeColor=none;fillColor=none;fontSize=14;fontStyle=1" parent="1" vertex="1">
          <mxGeometry x="1424" y="251" width="60" height="70" as="geometry" />
        </mxCell>
        <mxCell id="HVfy88yMo6TymLhJbl7A-18" value="&lt;span style=&quot;font-size: 18px;&quot;&gt;Intermediate Layers&lt;/span&gt;" style="text;html=1;align=center;verticalAlign=middle;resizable=0;points=[];autosize=1;strokeColor=none;fillColor=none;fontSize=14;fontStyle=1" parent="1" vertex="1">
          <mxGeometry x="1369" y="389" width="188" height="34" as="geometry" />
        </mxCell>
        <mxCell id="HVfy88yMo6TymLhJbl7A-19" value="" style="endArrow=classic;html=1;rounded=0;exitX=0.452;exitY=-0.029;exitDx=0;exitDy=0;exitPerimeter=0;" parent="1" source="HVfy88yMo6TymLhJbl7A-18" edge="1">
          <mxGeometry width="50" height="50" relative="1" as="geometry">
            <mxPoint x="1454" y="381" as="sourcePoint" />
            <mxPoint x="1454" y="304" as="targetPoint" />
          </mxGeometry>
        </mxCell>
        <mxCell id="HVfy88yMo6TymLhJbl7A-20" value="&lt;font style=&quot;font-size: 48px;&quot;&gt;...&lt;/font&gt;" style="text;html=1;align=center;verticalAlign=middle;resizable=0;points=[];autosize=1;strokeColor=none;fillColor=none;fontSize=14;fontStyle=1" parent="1" vertex="1">
          <mxGeometry x="383" y="251" width="60" height="70" as="geometry" />
        </mxCell>
        <mxCell id="HVfy88yMo6TymLhJbl7A-21" value="&lt;font style=&quot;font-size: 18px;&quot;&gt;Input(1x3x800x800)&lt;/font&gt;" style="rounded=1;whiteSpace=wrap;html=1;fillColor=#f5f5f5;gradientColor=#b3b3b3;strokeColor=#666666;fontSize=14;fontStyle=1;rotation=-90;" parent="1" vertex="1">
          <mxGeometry x="277" y="282" width="195" height="35" as="geometry" />
        </mxCell>
      </root>
    </mxGraphModel>
  </diagram>
</mxfile>
